<?xml version="1.0" encoding="utf-8" ?><svg xmlns="http://www.w3.org/2000/svg" xmlns:xlink="http://www.w3.org/1999/xlink" width="1024" height="1024" viewBox="0 0 1024 1024"><path d="M368.371 163.197C379.033 162.248 398.815 162.948 410.159 162.949C439.659 162.786 469.159 162.782 498.659 162.939C511.885 162.98 533.831 163.793 546.311 162.99L545.742 163.155C538.723 165.252 529.339 169.482 522.851 172.766C492.651 188.054 473.53 209.22 457.637 238.49C454.781 238.501 451.928 238.355 449.077 238.242C433.18 237.61 417.336 238.287 401.442 238.57C400.712 279.276 401.284 321.273 401.365 362.057L401.454 392.497C401.567 416.89 400.2 445.474 369.2 452.851C355.01 456.228 329.132 454.339 313.554 454.302C275.548 453.928 237.54 453.931 199.535 454.313C198.617 464.675 199.066 480.541 199.063 491.35L199.049 554.786L199.093 751.923C237.548 752.323 276.855 751.917 315.369 751.923L355.769 751.916C365.752 751.894 377.667 751.971 387.478 750.837C396.987 749.676 406.273 747.124 415.04 743.263C441.609 731.642 462.727 706.915 470.664 679.28C477.01 657.186 475.094 622.314 475.081 598.192L475.034 438.185L475.028 389.008C475.025 377.657 474.772 364.559 475.877 353.358C477.255 337.821 480.781 322.55 486.354 307.982C503.263 264.297 536.89 229.157 579.789 210.344C595.735 203.33 612.69 198.882 630.025 197.164C656.177 194.462 681.899 195.977 708.108 195.965C718.958 195.96 729.809 195.976 740.66 195.976L820.866 195.858C832.298 195.854 843.715 195.739 855.257 195.736C874.749 195.731 890.86 204.818 898.995 222.855C901.764 228.996 902.326 235.017 902.413 241.763C902.655 260.67 902.531 279.606 902.52 298.52L902.356 408.249L902.198 526.887C902.266 552.827 902.552 578.857 902.284 604.789C902.234 609.659 902.094 620.297 900.536 624.519C898.435 629.389 895.734 635.309 892.328 639.42C881.258 652.78 867.72 665.36 855.485 677.657L785.676 748.097L718.233 816.099C706.324 828.11 694.7 840.757 681.849 851.78C674.672 857.936 667.506 859.634 658.383 861.079L539.227 861.062C519.633 861.066 498.277 860.695 478.815 861.478C486.465 858.345 492.906 856.352 500.48 852.515C532.033 836.53 550.725 814.693 567.772 784.99C574.278 784.557 587.229 784.891 594.103 784.874C602.358 784.854 617.365 784.152 624.822 784.853C624.206 766.379 624.93 742.662 624.94 723.831L624.569 616.975C624.54 603.428 627.095 592.34 636.909 582.354C650.425 568.599 667.173 569.999 685.096 570.049L715.497 570.12L827.03 570.008L826.967 271.849L701.228 271.959L663.611 271.983C655.502 271.993 645.682 271.766 637.788 272.698C599.414 276.975 567.16 303.453 555.489 340.259C548.028 364.249 550.139 403.007 550.336 428.479L550.091 576.811L550.072 626.5C550.095 650.54 550.943 667.883 545.617 691.774C539.86 716.991 528.553 740.607 512.519 760.903C483.785 797.945 441.336 821.844 394.763 827.202C382.331 828.615 370.318 828.165 357.836 828.136L305.157 828.161C271.599 828.484 238.072 828.913 204.509 828.068C190.398 827.713 175.845 829.148 161.994 827.939C153.622 827.093 146.444 823.986 139.907 818.886C121.04 804.166 123.439 784.53 123.863 762.869C123.97 752.78 124.011 742.691 123.984 732.602L123.98 608.369L123.947 473.391C123.981 461.623 123.941 449.855 123.827 438.087C123.36 397.492 121.642 397.871 150.096 369.153L171.47 347.321L248.371 268.88L314.79 200.962C319.414 196.261 324.643 191.076 329.06 186.246C341.737 172.383 349.157 165.22 368.371 163.197ZM247.975 378.934C273.58 379.062 301.14 379.697 326.659 378.865C327.033 360.39 326.828 341.825 326.542 323.347C326.48 319.296 326.71 301.332 325.858 298.396C318.002 306.415 247.603 376.267 247.225 378.655L247.975 378.934ZM737.25 688.01C751.226 674.107 765.21 659.706 779.32 646.005C755.221 645.215 729.169 645.483 704.997 645.728C703.449 645.815 701.358 645.692 700.272 646.604C699.927 650.263 699.951 654.364 700.016 658.058C700.408 680.477 699.338 703.342 700.42 725.722C712.63 712.661 725.28 700.701 737.25 688.01Z"/></svg>